<svg xmlns="http://www.w3.org/2000/svg" fill="none" viewBox="0 0 112 30"><g clip-path="url(#striderlogo_svg__a)"><path fill="#202621" d="M37.349 21.756a7.62 7.62 0 0 1-5.092-1.925l1.558-1.868c1.08.895 2.206 1.455 3.583 1.455 1.08 0 1.731-.412 1.731-1.133v-.033c0-.668-.412-1.01-2.415-1.526-2.416-.606-3.991-1.278-3.991-3.66v-.034c0-2.177 1.748-3.616 4.2-3.616a6.943 6.943 0 0 1 4.458 1.526l-1.373 1.987c-1.064-.738-2.107-1.183-3.121-1.183-1.014 0-1.542.461-1.542 1.047v.029c0 .787.515 1.043 2.589 1.575 2.432.635 3.805 1.509 3.805 3.599v.037c.013 2.387-1.805 3.723-4.39 3.723ZM49.91 12.018v9.565h-2.638v-9.565h-3.653V9.586h9.94v2.436l-3.648-.004ZM63.553 21.583l-2.573-3.838H58.92v3.838H56.28V9.586h5.484c2.828 0 4.535 1.492 4.535 3.962v.033a3.71 3.71 0 0 1-2.573 3.71l2.931 4.284-3.104.008Zm.05-7.9c0-1.133-.788-1.714-2.062-1.714h-2.622v3.446h2.663c1.282 0 2.02-.688 2.02-1.698v-.033ZM69.466 21.583V9.586h2.638v11.997h-2.638ZM80.465 21.583h-4.68V9.586h4.68c3.772 0 6.377 2.589 6.377 5.965v.033c0 3.377-2.585 5.999-6.377 5.999Zm3.615-5.999a3.446 3.446 0 0 0-3.615-3.615h-2.062v7.23h2.061c2.16 0 3.616-1.454 3.616-3.578v-.037ZM89.46 21.583V9.586h9.05v2.35h-6.419v2.432h5.649v2.35H92.09v2.519h6.514v2.346h-9.144ZM108.912 21.583l-2.568-3.838h-2.062v3.838h-2.642V9.586h5.487c2.828 0 4.535 1.492 4.535 3.962v.033a3.714 3.714 0 0 1-2.568 3.71l2.931 4.284-3.113.008Zm.054-7.9c0-1.133-.788-1.714-2.062-1.714h-2.622v3.446h2.651c1.287 0 2.025-.688 2.025-1.698l.008-.033Z"></path><path fill="#437BD2" d="M25.627 14a.87.87 0 0 0 .264-.638.873.873 0 0 0-.264-.635.92.92 0 0 0-.206-.153v-3.69a.794.794 0 0 0 .412-.416.792.792 0 0 0 0-.594.795.795 0 0 0-.42-.42.792.792 0 0 0-.594 0l-.095.054-2.061-1.175c0-.025.029-.046.041-.075a1.03 1.03 0 0 0-.969-1.422 1.03 1.03 0 0 0-.866.478l-6.918-3.987a.898.898 0 0 0 .05-.296.976.976 0 0 0-.079-.413.915.915 0 0 0-.222-.334.98.98 0 0 0-.334-.226 1.055 1.055 0 0 0-1.138.226 1.032 1.032 0 0 0-.264 1.01L6.802 4.267a.99.99 0 0 0-.21-.128.874.874 0 0 0-.342-.066.903.903 0 0 0-.342.066.928.928 0 0 0-.483.487.874.874 0 0 0-.066.342c-.002.04-.002.08 0 .12L1.39 7.37a1.05 1.05 0 0 0-.198-.12.85.85 0 0 0-.655 0 .825.825 0 0 0-.466.467.825.825 0 0 0-.066.33c0 .112.022.222.066.325a.924.924 0 0 0 .185.28c.062.06.131.11.207.15V21.12a1.03 1.03 0 0 0-.408.837A1.022 1.022 0 0 0 1.1 23.005c.134 0 .267-.027.391-.078l.083-.046 5.566 3.196 5.005 2.886c.006.106.03.21.07.309.053.123.129.237.222.334a1.031 1.031 0 0 0 .746.3 1.03 1.03 0 0 0 1.027-1.047.947.947 0 0 0 0-.152l10.142-5.88c.037.024.076.045.116.063.13.053.27.08.412.078a1.031 1.031 0 0 0 1.047-1.047.977.977 0 0 0-.078-.412.915.915 0 0 0-.223-.334.868.868 0 0 0-.169-.136v-6.886a.921.921 0 0 0 .17-.152Zm-1.439-1.042a.294.294 0 0 0-.033.062.882.882 0 0 0-.07.346.57.57 0 0 0 0 .078l-5.351 1.851L21.137 8.7l3.051 4.259Zm-3.422-6.951c.029.222.13.428.289.585l.037.033-.169.466-1.229-1.69 1.072.606Zm-.16 1.958-2.639 7.199-1.888-1.736v-.066a.708.708 0 0 0-.058-.289.736.736 0 0 0-.408-.408.768.768 0 0 0-.289-.058.65.65 0 0 0-.127 0L13.2 10.76l5.57-5.36 1.835 2.565Zm-4.948 12.723a.824.824 0 0 0 .178.264l-.949 2.601-3.19.706c-.025-.025-.042-.054-.067-.079a1.031 1.031 0 0 0-.717-.297h-.14l-2.214-3.772a.161.161 0 0 0 .024-.045c.04-.091.06-.19.058-.289a.722.722 0 0 0 0-.165l8.827-3.05-1.096 3.005a.825.825 0 0 0-.71.499.796.796 0 0 0-.062.309.822.822 0 0 0 .05.313h.008ZM7.986 19.04h-.05L6.75 16.986l5.895-5.673 1.971 1.81a.69.69 0 0 0-.045.243.748.748 0 0 0 .223.532c.068.073.153.13.247.165a.75.75 0 0 0 .577 0l1.851 1.682-9.482 3.294Zm-.775.272-4.535 1.58 3.5-3.361 1.035 1.781Zm3.66-11.11a.903.903 0 0 0-.185-.277.874.874 0 0 0-.61-.252.89.89 0 0 0-.21.03l-.763-.697 8.489-1.501-4.948 4.753-1.731-1.583a.828.828 0 0 0 0-.144.903.903 0 0 0-.041-.33Zm-3.71-3.349 5.203-2.997c.066.051.138.094.214.128.13.055.271.082.413.078a.977.977 0 0 0 .391-.078c.067-.029.13-.063.19-.103l4.72 2.721-9.894 1.748-1.27-1.167a.746.746 0 0 0 .033-.194 1.014 1.014 0 0 0-.025-.136h.025Zm-.767.998a.684.684 0 0 0 .223-.058h.037l.804.743-1.336.235.272-.92Zm-.52 1.728 2.297-.413 1.126 1.04a.858.858 0 0 0 1.125 1.112l.054-.028 1.649 1.496-5.788 5.517-2.062-3.505 1.6-5.22ZM5.628 5.73l-.35 1.17-2.445.433 2.795-1.603ZM1.686 8.287a.35.35 0 0 0 .115 0h.066l3.159-.557-1.237 4.168L1.703 8.34c-.03-.024-.025-.053-.017-.053Zm-.552 12.302V8.946l2.317 3.95-.623 2.061a.824.824 0 0 0-.404 1.064c0 .037.037.066.054.1l-1.344 4.468Zm2.016-4.057h.045a.825.825 0 0 0 .771-.515.825.825 0 0 0-.35-1.027l.362-1.204 1.79 3.051-3.806 3.65 1.188-3.955Zm3.962 8.708L2.024 22.34a1.01 1.01 0 0 0 .078-.453l5.121-1.769a.713.713 0 0 0 .392.367c.09.04.189.06.288.058h.03l2.192 3.74a.971.971 0 0 0-.136.226c-.016.043-.03.087-.04.132l-2.837.598Zm5.194 2.976-4.197-2.39 1.942-.413a.994.994 0 0 0 .487.433.985.985 0 0 0 .391.074.848.848 0 0 0 .145 0l1.31 2.239-.078.057Zm1.048-.412a1.118 1.118 0 0 0-.202 0h-.075l-1.344-2.292a.856.856 0 0 0 .132-.223.982.982 0 0 0 .066-.288l2.651-.578-1.228 3.381Zm.779.099 1.344-3.682 8.175-1.76-9.52 5.442Zm1.649-4.535.825-2.214a.776.776 0 0 0 .556-.474.824.824 0 0 0 0-.623.715.715 0 0 0-.095-.165l1.237-3.393 5.553 5.13-8.076 1.739Zm8.955-2.474a1.08 1.08 0 0 0-.277.066l-.107.058-5.421-4.968 5.545-1.934c.049.032.1.06.152.083l.104.029.004 6.666Zm0-8.501-3.299-4.572.347-.957a.92.92 0 0 0 .363-.074l2.189 1.237a.77.77 0 0 0 0 .103c0 .102.02.203.061.297.039.094.095.179.166.251.053.05.113.093.177.128l-.004 3.587Z"></path></g><defs><clipPath id="striderlogo_svg__a"><path fill="#fff" d="M0 0h112v29.849H0z"></path></clipPath></defs></svg>